{
	"patcher" : 	{
		"fileversion" : 1,
		"appversion" : 		{
			"major" : 7,
			"minor" : 3,
			"revision" : 4,
			"architecture" : "x86",
			"modernui" : 1
		}
,
		"rect" : [ 59.0, 104.0, 752.0, 511.0 ],
		"bglocked" : 0,
		"openinpresentation" : 0,
		"default_fontsize" : 12.0,
		"default_fontface" : 0,
		"default_fontname" : "Arial",
		"gridonopen" : 1,
		"gridsize" : [ 15.0, 15.0 ],
		"gridsnaponopen" : 1,
		"objectsnaponopen" : 1,
		"statusbarvisible" : 2,
		"toolbarvisible" : 1,
		"lefttoolbarpinned" : 0,
		"toptoolbarpinned" : 0,
		"righttoolbarpinned" : 0,
		"bottomtoolbarpinned" : 0,
		"toolbars_unpinned_last_save" : 0,
		"tallnewobj" : 0,
		"boxanimatetime" : 200,
		"enablehscroll" : 1,
		"enablevscroll" : 1,
		"devicewidth" : 0.0,
		"description" : "",
		"digest" : "",
		"tags" : "",
		"style" : "",
		"subpatcher_template" : "",
		"boxes" : [ 			{
				"box" : 				{
					"id" : "obj-6",
					"maxclass" : "newobj",
					"numinlets" : 1,
					"numoutlets" : 2,
					"outlettype" : [ "jit_matrix", "" ],
					"patching_rect" : [ 338.333344, 371.5, 71.0, 20.0 ],
					"style" : "",
					"text" : "jit.unpack 1"
				}

			}
, 			{
				"box" : 				{
					"id" : "obj-5",
					"maxclass" : "jit.pwindow",
					"numinlets" : 1,
					"numoutlets" : 2,
					"outlettype" : [ "", "" ],
					"patching_rect" : [ 338.333344, 408.0, 80.0, 60.0 ]
				}

			}
, 			{
				"box" : 				{
					"fontface" : 1,
					"fontname" : "Arial",
					"fontsize" : 20.871338,
					"id" : "obj-49",
					"maxclass" : "comment",
					"numinlets" : 1,
					"numoutlets" : 0,
					"patching_rect" : [ 16.719757, 12.719761, 232.0, 27.0 ],
					"presentation" : 1,
					"presentation_rect" : [ 76.0, 77.0, 232.0, 27.0 ],
					"style" : "",
					"text" : "mic.interp_funcBP",
					"textcolor" : [ 0.937255, 0.92549, 0.792157, 1.0 ]
				}

			}
, 			{
				"box" : 				{
					"fontname" : "Arial",
					"fontsize" : 11.595187,
					"id" : "obj-30",
					"linecount" : 11,
					"maxclass" : "comment",
					"numinlets" : 1,
					"numoutlets" : 0,
					"patching_rect" : [ 16.719757, 44.0, 365.0, 134.0 ],
					"style" : "",
					"text" : "interpolate two functions outputs \n1. to a line~ or curve~\n2. interpolated list\n3. to a function\n\nArguments:\n1. func_type (linear, curve)\n2. domain\n3. 4. range\n5. matrix_output (default 0)\n6. symbol prepended",
					"textcolor" : [ 1.0, 1.0, 1.0, 1.0 ]
				}

			}
, 			{
				"box" : 				{
					"angle" : 0.0,
					"bgcolor" : [ 0.439216, 0.74902, 0.254902, 1.0 ],
					"id" : "obj-83",
					"maxclass" : "panel",
					"mode" : 0,
					"numinlets" : 1,
					"numoutlets" : 0,
					"patching_rect" : [ 11.719757, 8.719761, 400.280243, 181.280243 ],
					"presentation" : 1,
					"presentation_rect" : [ 71.0, 73.0, 632.0, 58.0 ],
					"proportion" : 0.39,
					"shadow" : -1,
					"style" : ""
				}

			}
, 			{
				"box" : 				{
					"hidden" : 1,
					"id" : "obj-4",
					"maxclass" : "newobj",
					"numinlets" : 1,
					"numoutlets" : 1,
					"outlettype" : [ "bang" ],
					"patching_rect" : [ 37.0, 173.0, 76.0, 20.0 ],
					"style" : "",
					"text" : "loadbang"
				}

			}
, 			{
				"box" : 				{
					"addpoints_with_curve" : [ 0.140851, 0.021183, 0, 0.0, 61.014915, 1.994517, 0, 0.525466, 100.0, 0.0, 0, -0.153191 ],
					"domain" : 100.0,
					"id" : "obj-2",
					"maxclass" : "function",
					"mode" : 1,
					"numinlets" : 1,
					"numoutlets" : 4,
					"outlettype" : [ "float", "", "", "bang" ],
					"parameter_enable" : 0,
					"patching_rect" : [ 457.5, 355.0, 200.0, 100.0 ],
					"range" : [ 0.0, 1.994517 ],
					"style" : ""
				}

			}
, 			{
				"box" : 				{
					"args" : [ "curve", 100, 0.0, 2.0, 1, "envelope" ],
					"bgmode" : 0,
					"border" : 0,
					"clickthrough" : 0,
					"enablehscroll" : 0,
					"enablevscroll" : 0,
					"id" : "obj-1",
					"lockeddragscroll" : 0,
					"maxclass" : "bpatcher",
					"name" : "mic.func_interpBP.maxpat",
					"numinlets" : 2,
					"numoutlets" : 4,
					"offset" : [ 0.0, 0.0 ],
					"outlettype" : [ "", "list", "jit_matrix", "" ],
					"patching_rect" : [ 37.0, 200.0, 471.0, 133.0 ],
					"varname" : "mic.func_interpBP",
					"viewvisibility" : 1
				}

			}
 ],
		"lines" : [ 			{
				"patchline" : 				{
					"destination" : [ "obj-2", 0 ],
					"source" : [ "obj-1", 3 ]
				}

			}
, 			{
				"patchline" : 				{
					"destination" : [ "obj-6", 0 ],
					"source" : [ "obj-1", 2 ]
				}

			}
, 			{
				"patchline" : 				{
					"destination" : [ "obj-1", 0 ],
					"source" : [ "obj-4", 0 ]
				}

			}
, 			{
				"patchline" : 				{
					"destination" : [ "obj-5", 0 ],
					"source" : [ "obj-6", 0 ]
				}

			}
 ],
		"parameters" : 		{
			"obj-1::obj-44" : [ "number[2]", "number[2]", 0 ],
			"obj-1::obj-42" : [ "number[1]", "number[1]", 0 ],
			"obj-1::obj-31" : [ "number", "number", 0 ]
		}
,
		"dependency_cache" : [ 			{
				"name" : "mic.func_interpBP.maxpat",
				"bootpath" : "~/Documents/Max 7/Packages/mic_externals/mic_envelope",
				"patcherrelativepath" : "..",
				"type" : "JSON",
				"implicit" : 1
			}
, 			{
				"name" : "mic.func2func.maxpat",
				"bootpath" : "~/Documents/Max 7/Packages/mic_externals/mic_envelope",
				"patcherrelativepath" : "..",
				"type" : "JSON",
				"implicit" : 1
			}
, 			{
				"name" : "mic.func2matrix.maxpat",
				"bootpath" : "~/Documents/Max 7/Packages/mic_externals/mic_jitter",
				"patcherrelativepath" : "../../mic_jitter",
				"type" : "JSON",
				"implicit" : 1
			}
, 			{
				"name" : "list-interpolate.mxo",
				"type" : "iLaX"
			}
 ],
		"autosave" : 0
	}

}
